{
  "accessors": [
    {
      "bufferView": 2,
      "componentType": 5126,
      "count": 3608,
      "max": [
        6.89410400390625,
        23.01683235168457,
        0.6781589984893799
      ],
      "min": [
        -12.369150161743164,
        -3.452260971069336,
        0.3185429871082306
      ],
      "type": "VEC3"
    },
    {
      "bufferView": 2,
      "byteOffset": 43296,
      "componentType": 5126,
      "count": 3608,
      "max": [
        0.9831423163414001,
        0.9980352520942688,
        0.9999998807907104
      ],
      "min": [
        -0.9942047595977783,
        -0.9979382157325745,
        -0.999954104423523
      ],
      "type": "VEC3"
    },
    {
      "bufferView": 3,
      "componentType": 5126,
      "count": 3608,
      "max": [
        0.999994158744812,
        0.9999984502792358,
        0.8874440789222717,
        1.0
      ],
      "min": [
        -0.9996811747550964,
        -0.8940802216529846,
        -0.7356846928596497,
        -1.0
      ],
      "type": "VEC4"
    },
    {
      "bufferView": 1,
      "componentType": 5126,
      "count": 3608,
      "max": [
        0.9999359846115112,
        0.956728994846344
      ],
      "min": [
        3.000000106112566e-06,
        0.0001939999929163605
      ],
      "type": "VEC2"
    },
    {
      "bufferView": 0,
      "componentType": 5125,
      "count": 15000,
      "type": "SCALAR"
    }
  ],
  "asset": {
    "extras": {
      "author": "boat_dfk (https://sketchfab.com/boat_dfk)",
      "license": "CC-BY-4.0 (http://creativecommons.org/licenses/by/4.0/)",
      "source": "https://sketchfab.com/3d-models/cracked-asphalt-with-gravel-low-poly-free-13cd8e2f9e3245749980e46d58b6db8c",
      "title": "Cracked asphalt with gravel low poly - free"
    },
    "generator": "Sketchfab-15.8.0",
    "version": "2.0"
  },
  "bufferViews": [
    {
      "buffer": 0,
      "byteLength": 60000,
      "name": "floatBufferViews",
      "target": 34963
    },
    {
      "buffer": 0,
      "byteLength": 28864,
      "byteOffset": 60000,
      "byteStride": 8,
      "name": "floatBufferViews",
      "target": 34962
    },
    {
      "buffer": 0,
      "byteLength": 86592,
      "byteOffset": 88864,
      "byteStride": 12,
      "name": "floatBufferViews",
      "target": 34962
    },
    {
      "buffer": 0,
      "byteLength": 57728,
      "byteOffset": 175456,
      "byteStride": 16,
      "name": "floatBufferViews",
      "target": 34962
    }
  ],
  "buffers": [
    {
      "byteLength": 233184,
      "uri": "scene.bin"
    }
  ],
  "extensionsUsed": [
    "KHR_materials_specular"
  ],
  "images": [
    {
      "uri": "textures/debris_asfalto_1_5k.001_baseColor.jpeg"
    },
    {
      "uri": "textures/debris_asfalto_1_5k.001_metallicRoughness.png"
    },
    {
      "uri": "textures/debris_asfalto_1_5k.001_normal.jpeg"
    }
  ],
  "materials": [
    {
      "doubleSided": true,
      "extensions": {
        "KHR_materials_specular": {
          "specularColorFactor": [
            1.0,
            1.0,
            1.0
          ],
          "specularFactor": 0.03195715168495233
        }
      },
      "name": "debris_asfalto_1_5k.001",
      "normalTexture": {
        "index": 2
      },
      "occlusionTexture": {
        "index": 1
      },
      "pbrMetallicRoughness": {
        "baseColorTexture": {
          "index": 0
        },
        "metallicFactor": 0.0,
        "metallicRoughnessTexture": {
          "index": 1
        }
      }
    }
  ],
  "meshes": [
    {
      "name": "Object_0",
      "primitives": [
        {
          "attributes": {
            "NORMAL": 1,
            "POSITION": 0,
            "TANGENT": 2,
            "TEXCOORD_0": 3
          },
          "indices": 4,
          "material": 0,
          "mode": 4
        }
      ]
    }
  ],
  "nodes": [
    {
      "children": [
        1
      ],
      "matrix": [
        1.0,
        0.0,
        0.0,
        0.0,
        0.0,
        2.220446049250313e-16,
        -1.0,
        0.0,
        0.0,
        1.0,
        2.220446049250313e-16,
        0.0,
        0.0,
        0.0,
        0.0,
        1.0
      ],
      "name": "Sketchfab_model"
    },
    {
      "children": [
        2
      ],
      "name": "debris asfalto export.obj.cleaner.materialmerger.gles"
    },
    {
      "mesh": 0,
      "name": "Object_2"
    }
  ],
  "samplers": [
    {
      "magFilter": 9729,
      "minFilter": 9987,
      "wrapS": 10497,
      "wrapT": 10497
    }
  ],
  "scene": 0,
  "scenes": [
    {
      "name": "Sketchfab_Scene",
      "nodes": [
        0
      ]
    }
  ],
  "textures": [
    {
      "sampler": 0,
      "source": 0
    },
    {
      "sampler": 0,
      "source": 1
    },
    {
      "sampler": 0,
      "source": 2
    }
  ]
}
