{
  "accessors": [
    {
      "bufferView": 1,
      "componentType": 5126,
      "count": 40558,
      "max": [
        128.781494140625,
        114.74359893798828,
        39.13949966430664
      ],
      "min": [
        84.22820281982422,
        89.95240020751953,
        -2.499500036239624
      ],
      "type": "VEC3"
    },
    {
      "bufferView": 1,
      "byteOffset": 486696,
      "componentType": 5126,
      "count": 40558,
      "max": [
        0.9999895095825195,
        0.999671995639801,
        0.9999366998672485
      ],
      "min": [
        -0.9997683167457581,
        -0.9999337196350098,
        -0.9998887777328491
      ],
      "type": "VEC3"
    },
    {
      "bufferView": 0,
      "componentType": 5125,
      "count": 242607,
      "type": "SCALAR"
    }
  ],
  "asset": {
    "extras": {
      "author": "haimezer (https://sketchfab.com/haimezer)",
      "license": "CC-BY-4.0 (http://creativecommons.org/licenses/by/4.0/)",
      "source": "https://sketchfab.com/3d-models/a6-4bcd8f4dcf284b8482d831021a239bb3",
      "title": "A6"
    },
    "generator": "Sketchfab-12.64.0",
    "version": "2.0"
  },
  "bufferViews": [
    {
      "buffer": 0,
      "byteLength": 970428,
      "name": "floatBufferViews",
      "target": 34963
    },
    {
      "buffer": 0,
      "byteLength": 973392,
      "byteOffset": 970428,
      "byteStride": 12,
      "name": "floatBufferViews",
      "target": 34962
    }
  ],
  "buffers": [
    {
      "byteLength": 1943820,
      "uri": "scene.bin"
    }
  ],
  "materials": [
    {
      "doubleSided": true,
      "name": "wire_177088027",
      "pbrMetallicRoughness": {
        "baseColorFactor": [
          0.7409556523,
          0.4956752488,
          0.0246641582,
          1.0
        ],
        "metallicFactor": 0.28,
        "roughnessFactor": 0.05
      }
    }
  ],
  "meshes": [
    {
      "name": "Object_0",
      "primitives": [
        {
          "attributes": {
            "NORMAL": 1,
            "POSITION": 0
          },
          "indices": 2,
          "material": 0,
          "mode": 4
        }
      ]
    }
  ],
  "nodes": [
    {
      "children": [
        1
      ],
      "matrix": [
        1.0,
        0.0,
        0.0,
        0.0,
        0.0,
        2.220446049250313e-16,
        -1.0,
        0.0,
        0.0,
        1.0,
        2.220446049250313e-16,
        0.0,
        0.0,
        0.0,
        0.0,
        1.0
      ],
      "name": "Sketchfab_model"
    },
    {
      "children": [
        2
      ],
      "name": "A08.obj.cleaner"
    },
    {
      "mesh": 0,
      "name": "Object_2"
    }
  ],
  "scene": 0,
  "scenes": [
    {
      "name": "Sketchfab_Scene",
      "nodes": [
        0
      ]
    }
  ]
}
